{"title":"Heroes(Season-1) E-02 Bluray Rip In[Hindi-Eng]By !!!dip","uid":6599480,"size":1212679848,"categoryP":"video","categoryS":"hd___tv_shows","magnet":"?xt=urn:btih:97bb0fca9aebd478b69566a2a5d1a3429f0eccf3&amp;dn=Heroes%28Season-1%29+E-02+Bluray+Rip+In%5BHindi-Eng%5DBy+%21%21%21dip&amp;tr=udp%3A%2F%2Ftracker.openbittorrent.com%3A80&amp;tr=udp%3A%2F%2Fopen.demonii.com%3A1337&amp;tr=udp%3A%2F%2Ftracker.coppersurfer.tk%3A6969&amp;tr=udp%3A%2F%2Fexodus.desync.com%3A6969","seeders":1,"leechers":0,"uploader":"dipty","files":-1,"time":1313148794,"description":"           =!HD DESI ROCKER RELEASES!=/=!DK GROUP HD BLURAY RELEAESEES!=\n\n===================================================================================\n\n             Heroes(Season-1) E-02 Bluray Rip In[Hindi-Eng]By !!!dip\n\n===================================================================================\n\nStoryline:\n\nThey thought they were like everyone else... until they woke with incredible abilities.  \n\nCast:\n\nJack Coleman..............Noah Bennet\nHayden Panettiere.........Claire Bennet\nMilo Ventimiglia..........Peter Petrelli\nMasi Oka..................Hiro Nakamura\nSendhil Ramamurthy........Mohinder Suresh\nJames Kyson-Lee...........Ando Masahashi\nAdrian Pasdar.............Nathan Petrelli\nZachary Quinto............Sylar\nGreg Grunberg.............Matt Parkman\nAli Larter................Niki Sanders\nCristine Rose.............Angela Petrelli\nAshley Crow...............Sandra Bennet\nJimmy Jean-Louis..........The Haitian\n\n\nCreator:...........Tim Kring\nStars :...........Jack Coleman, Hayden Panettiere and Milo Ventimiglia\nFormat :...........Color, Dubbed, Subtitled, Widescreen\nLanguage:..........[Hindi-Eng]\nRelease YEAR :.....2006\nGenre:.............Drama | Sci-Fi | Thriller\nSource:............Bluray\nRun Time :.........51m:17s\nColor:.............Color\nFilming Locations:.Freeway Park, Backlot, Universal Studios - 100 Universal City Plaza, Universal City, California, USA\nSUBTITLE:..........ENGLISH\n\n\nVideo Specifications:\n\nRelease Title/Year/Language...:Heroes(Season-1) E-02 Bluray Rip In[Hindi-Eng]By !!!dip\n\nID : 1\nFormat : AVC\nFormat/Info : Advanced Video Codec\nFormat profile : &lt;a class=&quot;__cf_email__&quot; href=&quot;/cdn-cgi/l/email-protection&quot; data-cfemail=&quot;da92b3bdb29a96eef4eb&quot;&gt;[email&amp;#160;protected]&lt;/a&gt;&lt;script cf-hash='f9e31' type=&quot;text/javascript&quot;&gt;\n/* &lt;![CDATA[ */!function(){try{var t=&quot;currentScript&quot;in document?document.currentScript:function(){for(var t=document.getElementsByTagName(&quot;script&quot;),e=t.length;e--;)if(t[e].getAttribute(&quot;cf-hash&quot;))return t[e]}();if(t&amp;&amp;t.previousSibling){var e,r,n,i,c=t.previousSibling,a=c.getAttribute(&quot;data-cfemail&quot;);if(a){for(e=&quot;&quot;,r=parseInt(a.substr(0,2),16),n=2;a.length-n;n+=2)i=parseInt(a.substr(n,2),16)^r,e+=String.fromCharCode(i);e=document.createTextNode(e),c.parentNode.replaceChild(e,c)}}}catch(u){}}();/* ]]&gt; */&lt;/script&gt;\nFormat settings, CABAC : Yes\nFormat settings, ReFrames : 4 frames\nMuxing mode : Header stripping\nCodec ID : V_MPEG4/ISO/AVC\nDuration : 41mn 09s\nBit rate : 2 486 Kbps\nWidth : 1 280 pixels\nHeight : 720 pixels\nDisplay aspect ratio : 16:9\nFrame rate : 25.000 fps\nOriginal frame rate : 23.976 fps\nColor space : YUV\nChroma subsampling : 4:2:0\nBit depth : 8 bits\nScan type : Progressive\nBits/(Pixel*Frame) : 0.108\nStream size : 923 MiB (80%)\nTitle : !!!dip\nResolution : 1280 x 720 pixels\nTeam : DK Group HD Bluray Releases/HD DESI ROCKER RELEAESEES\n\n\n\nAudio Specifications:\n\n\nAudio #1\nID : 2\nFormat : AC-3\nFormat/Info : Audio Coding 3\nMode extension : CM (complete main)\nMuxing mode : Header stripping\nCodec ID : A_AC3\nDuration : 41mn 09s\nBit rate mode : Constant\nBit rate : 448 Kbps\nChannel(s) : 6 channels\nChannel positions : Front: L C R, Side: L R, LFE\nSampling rate : 48.0 KHz\nBit depth : 16 bits\nCompression mode : Lossy\nStream size : 164 MiB (14%)\nTitle : !!!dip\nLanguage : English\n\nAudio #2\nID : 3\nFormat : MPEG Audio\nFormat version : Version 1\nFormat profile : Layer 3\nMode : Joint stereo\nMode extension : MS Stereo\nMuxing mode : Header stripping\nCodec ID : A_MPEG/L3\nCodec ID/Hint : MP3\nDuration : 41mn 09s\nBit rate mode : Constant\nBit rate : 128 Kbps\nChannel(s) : 2 channels\nSampling rate : 44.1 KHz\nCompression mode : Lossy\nDelay relative to video : 24s 500ms\nStream size : 47.0 MiB (4%)\nTitle : !!!dip\nLanguage : Hindi\n\nText\n\nID : 4\nFormat : ASS\nCodec ID : S_TEXT/ASS\nCodec ID/Info : Advanced Sub Station Alpha\nCompression mode : Lossless\nTitle : !!!dip\nLanguage : English\n\nSAMPLE IMAGE:\n &lt;a href=&quot;\nhttp://www.pix2links.com/images/03380295175301977662.jpg&quot; rel=&quot;nofollow&quot; target=&quot;_NEW&quot;&gt;\nhttp://www.pix2links.com/images/03380295175301977662.jpg&lt;/a&gt;\n &lt;a href=&quot;\nhttp://www.pix2links.com/images/04520231137374327151.jpg&quot; rel=&quot;nofollow&quot; target=&quot;_NEW&quot;&gt;\nhttp://www.pix2links.com/images/04520231137374327151.jpg&lt;/a&gt;\n &lt;a href=&quot;\nhttp://www.pix2links.com/images/92168813502697646953.jpg&quot; rel=&quot;nofollow&quot; target=&quot;_NEW&quot;&gt;\nhttp://www.pix2links.com/images/92168813502697646953.jpg&lt;/a&gt;\n &lt;a href=&quot;\nhttp://www.pix2links.com/images/91503655303673846705.jpg&quot; rel=&quot;nofollow&quot; target=&quot;_NEW&quot;&gt;\nhttp://www.pix2links.com/images/91503655303673846705.jpg&lt;/a&gt;\n &lt;a href=&quot;\nhttp://www.pix2links.com/images/36350972750386339581.jpg&quot; rel=&quot;nofollow&quot; target=&quot;_NEW&quot;&gt;\nhttp://www.pix2links.com/images/36350972750386339581.jpg&lt;/a&gt;","torrent":{"xt":"urn:btih:97bb0fca9aebd478b69566a2a5d1a3429f0eccf3","amp;dn":"Heroes%28Season-1%29+E-02+Bluray+Rip+In%5BHindi-Eng%5DBy+%21%21%21dip","amp;tr":["udp%3A%2F%2Ftracker.openbittorrent.com%3A80","udp%3A%2F%2Fopen.demonii.com%3A1337","udp%3A%2F%2Ftracker.coppersurfer.tk%3A6969","udp%3A%2F%2Fexodus.desync.com%3A6969"],"infoHash":"97bb0fca9aebd478b69566a2a5d1a3429f0eccf3","infoHashBuffer":{"type":"Buffer","data":[151,187,15,202,154,235,212,120,182,149,102,162,165,209,163,66,159,14,204,243]},"announce":[],"urlList":[]}}